<svg id="mobile" xmlns="http://www.w3.org/2000/svg" width="20.031" height="20.031" viewBox="0 0 20.031 20.031">
  <g id="Group_442" data-name="Group 442">
    <g id="Group_441" data-name="Group 441">
      <path id="Path_421" data-name="Path 421" d="M18.424,13.148a11.373,11.373,0,0,1-3.572-.569,1.633,1.633,0,0,0-1.588.335l-2.252,1.7a12.447,12.447,0,0,1-5.6-5.6l1.65-2.194a1.619,1.619,0,0,0,.4-1.64,11.39,11.39,0,0,1-.571-3.578A1.609,1.609,0,0,0,5.286,0H1.607A1.609,1.609,0,0,0,0,1.607,18.445,18.445,0,0,0,18.424,20.031a1.609,1.609,0,0,0,1.607-1.607V14.755A1.609,1.609,0,0,0,18.424,13.148Z" fill="#a4342c"/>
    </g>
  </g>
</svg>
