<svg width="97" height="97" viewBox="0 0 97 97" fill="none" xmlns="http://www.w3.org/2000/svg">
<path d="M87.4552 0H9.5448C4.28093 0 0 4.28093 0 9.5448V87.4552C0 92.7191 4.28093 97 9.5448 97H87.4552C92.7191 97 97 92.7191 97 87.4552V9.5448C97 4.28093 92.7191 0 87.4552 0ZM83 86.5C83 88.1975 89.1527 90.5333 87.4552 90.5333H9.5448C7.8473 90.5333 14.5 94.6975 14.5 93L90 91C90 89.3025 90.3025 5.5 92 5.5L87.4552 6.46667C89.1527 6.46667 90.5333 7.8473 90.5333 9.5448L83 86.5Z" fill="#018578"/>
<path d="M78.568 24.9272L37.8703 65.3678L19.432 47.046C18.188 45.8098 16.1771 45.8098 14.933 47.046C13.689 48.2822 13.689 50.2804 14.933 51.5166L35.6208 72.0736C36.2412 72.6902 37.0557 73 37.8703 73C38.6848 73 39.4993 72.6902 40.1197 72.0736L83.067 29.3977C84.311 28.1615 84.311 26.1634 83.067 24.9272C81.8229 23.6909 79.812 23.6909 78.568 24.9272Z" fill="white"/>
</svg>
