<svg width="231" height="231" viewBox="0 0 231 231" fill="none" xmlns="http://www.w3.org/2000/svg">
<path d="M46.8483 59.0236C45.6993 58.1102 44.0238 58.2992 43.1443 59.4743C29.9561 77.0951 23.5827 98.93 25.2647 120.935C27.0143 143.825 37.3507 165.209 54.2022 180.798C71.0537 196.388 93.1748 205.033 116.132 205C139.089 204.967 161.185 196.258 177.991 180.619C194.797 164.981 205.072 143.568 206.755 120.673C208.438 97.7777 201.406 75.0923 187.068 57.1638C172.73 39.2353 152.145 27.3884 129.44 23.9979C107.612 20.7385 85.3757 25.5258 66.8525 37.4133C65.6172 38.206 65.3083 39.8636 66.1367 41.0753V41.0753C66.9652 42.2869 68.6173 42.5935 69.854 41.803C87.2691 30.6712 108.154 26.1936 128.655 29.255C150.034 32.4475 169.416 43.6023 182.917 60.4837C196.418 77.365 203.039 98.7252 201.454 120.283C199.869 141.841 190.195 162.003 174.37 176.728C158.545 191.453 137.74 199.653 116.124 199.685C94.5081 199.716 73.679 191.576 57.8119 176.897C41.9447 162.217 32.212 142.083 30.5646 120.53C28.9848 99.862 34.9521 79.3535 47.3069 62.7836C48.1843 61.6069 47.9972 59.937 46.8483 59.0236V59.0236Z" fill="#3CAD42"/>
<path d="M61.8083 44.5136C60.9241 43.342 59.2549 43.106 58.1096 44.0241C54.8736 46.6181 51.8187 49.4304 48.9662 52.4412C47.9567 53.5068 48.0541 55.1898 49.1487 56.1677V56.1677C50.2433 57.1457 51.9203 57.048 52.9318 55.9843C55.5513 53.2293 58.3513 50.6517 61.3132 48.2686C62.4568 47.3485 62.6925 45.6852 61.8083 44.5136V44.5136Z" fill="#3CAD42"/>
<path d="M170.362 159.668C171.687 160.722 173.621 160.505 174.619 159.137C184.909 145.025 189.861 127.678 188.525 110.197C187.111 91.6961 178.756 74.4128 165.136 61.8119C151.515 49.2109 133.635 42.2237 115.08 42.2505C96.5247 42.2773 78.6651 49.3164 65.0811 61.9566C51.4971 74.5969 43.1924 91.9043 41.8318 110.41C40.4712 128.915 46.1552 147.251 57.7444 161.742C69.3336 176.233 85.9716 185.809 104.323 188.549C121.663 191.138 139.321 187.445 154.136 178.196C155.572 177.3 155.927 175.387 154.972 173.989V173.989C154.017 172.592 152.113 172.24 150.673 173.131C137.138 181.51 121.039 184.847 105.229 182.486C88.4065 179.974 73.1552 171.197 62.5319 157.913C51.9086 144.63 46.6984 127.822 47.9456 110.859C49.1928 93.8961 56.8053 78.0312 69.2571 66.4445C81.709 54.8577 98.0801 48.4054 115.089 48.3808C132.098 48.3561 148.488 54.7611 160.973 66.3118C173.458 77.8624 181.117 93.7053 182.413 110.665C183.631 126.603 179.146 142.421 169.815 155.319C168.823 156.69 169.037 158.615 170.362 159.668V159.668Z" fill="#3CAD42"/>
<path d="M158.454 171.259C159.464 172.597 161.371 172.868 162.666 171.804C164.799 170.051 166.832 168.18 168.754 166.199C169.922 164.997 169.809 163.073 168.559 161.957V161.957C167.309 160.84 165.396 160.953 164.224 162.151C162.57 163.843 160.828 165.446 159.006 166.955C157.715 168.024 157.444 169.921 158.454 171.259V171.259Z" fill="#3CAD42"/>
<path fill-rule="evenodd" clip-rule="evenodd" d="M147.788 82.3687L113.636 121.47C112.728 122.51 111.149 122.616 110.109 121.708C109.069 120.8 108.962 119.22 109.871 118.181L144.371 78.6806C144.585 78.4355 144.844 78.2346 145.136 78.0891C146.358 77.478 148.327 76.7723 150.458 76.5622C152.56 76.355 155.245 76.5967 157.381 78.427C159.722 80.4338 160.688 83.0818 160.927 85.3088C161.046 86.4231 160.992 87.4933 160.805 88.4148C160.643 89.2172 160.301 90.3137 159.521 91.0929C159.537 91.0777 159.525 91.0902 159.477 91.145C159.424 91.2063 159.323 91.3205 159.161 91.5079C158.898 91.8127 158.529 92.2429 158.065 92.7876C157.136 93.8762 155.834 95.4097 154.246 97.2859C151.069 101.038 146.752 106.152 141.99 111.799C132.476 123.082 121.19 136.49 113.69 145.406C112.217 147.261 109.541 149.611 106.145 150.569C102.511 151.594 98.3252 150.932 94.4858 147.093C88.1039 140.711 77.5188 130.459 73.0194 126.126C72.9364 126.046 72.859 125.96 72.7877 125.87C71.7158 124.505 70.3549 122.225 69.779 119.708C69.1927 117.145 69.359 113.887 72.0926 111.457C74.5655 109.258 77.4729 108.849 79.9044 109.143C82.2811 109.431 84.3724 110.4 85.6403 111.245C85.7387 111.311 85.8324 111.383 85.9206 111.462L104.921 128.462C105.95 129.383 106.037 130.963 105.117 131.992C104.196 133.021 102.616 133.109 101.587 132.188L82.7316 115.318C81.975 114.845 80.6895 114.275 79.3027 114.107C77.8842 113.935 76.5416 114.192 75.4145 115.194C74.5481 115.964 74.2977 117.039 74.6531 118.593C75.0032 120.123 75.8782 121.672 76.6201 122.652C81.1935 127.057 91.6653 137.201 98.0213 143.557C100.582 146.118 102.896 146.29 104.787 145.756C106.897 145.162 108.76 143.583 109.791 142.276C109.8 142.265 109.809 142.254 109.817 142.244C109.825 142.234 109.833 142.225 109.84 142.216C117.341 133.299 128.641 119.873 138.167 108.576C142.93 102.928 147.25 97.8106 150.43 94.055C152.02 92.1775 153.326 90.6384 154.261 89.5427C154.964 88.7176 155.53 88.0573 155.823 87.7317C155.843 87.6768 155.873 87.5778 155.905 87.423C155.984 87.0319 156.023 86.4771 155.955 85.8415C155.819 84.5685 155.285 83.2164 154.127 82.2233C153.462 81.6536 152.397 81.3953 150.949 81.5381C149.756 81.6556 148.591 82.0235 147.788 82.3687Z" fill="#3CAD42"/>
</svg>
