<svg xmlns="http://www.w3.org/2000/svg" width="20.031" height="15.003" viewBox="0 0 20.031 15.003">
  <g id="Group_14508" data-name="Group 14508" transform="translate(0 -64.266)">
    <path id="Path_414" data-name="Path 414" d="M11.69,176.969a3.013,3.013,0,0,1-3.348,0L.133,171.5Q.065,171.451,0,171.4v8.967a1.843,1.843,0,0,0,1.844,1.844H18.187a1.843,1.843,0,0,0,1.844-1.844V171.4c-.044.033-.088.064-.134.095Z" transform="translate(0 -102.944)" fill="#a4342c"/>
    <path id="Path_415" data-name="Path 415" d="M.784,67.576l8.208,5.472a1.839,1.839,0,0,0,2.046,0l8.208-5.472a1.757,1.757,0,0,0,.784-1.466,1.845,1.845,0,0,0-1.843-1.843H1.843A1.846,1.846,0,0,0,0,66.11a1.757,1.757,0,0,0,.784,1.465Z" transform="translate(0 0)" fill="#a4342c"/>
  </g>
</svg>
