<svg width="97" height="97" viewBox="0 0 97 97" fill="none" xmlns="http://www.w3.org/2000/svg">
<path d="M87.4552 0H9.5448C4.28093 0 0 4.28093 0 9.5448V87.4552C0 92.7191 4.28093 97 9.5448 97H87.4552C92.7191 97 97 92.7191 97 87.4552V9.5448C97 4.28093 92.7191 0 87.4552 0ZM90.5333 87.4552C90.5333 89.1527 89.1527 90.5333 87.4552 90.5333H9.5448C7.8473 90.5333 6.46667 89.1527 6.46667 87.4552V9.5448C6.46667 7.8473 7.8473 6.46667 9.5448 6.46667H87.4552C89.1527 6.46667 90.5333 7.8473 90.5333 9.5448V87.4552Z" fill="#787878"/>
</svg>
